<?xml version="1.0" encoding="UTF-8"?>
<svg width="168px" height="29px" viewBox="0 0 168 29" version="1.1" xmlns="http://www.w3.org/2000/svg" xmlns:xlink="http://www.w3.org/1999/xlink">
    <g id="页面-1" stroke="none" stroke-width="1" fill="none" fill-rule="evenodd">
        <g id="首页效果" transform="translate(-360.000000, -31.000000)">
            <g id="8888888-08" transform="translate(360.000000, 31.000000)">
                <g id="编组" transform="translate(54.000000, 3.000000)" fill="#494949" fill-rule="nonzero">
                    <path d="M50.1,6.5 L46.8,6.5 L46.8,21.8 L50.1,21.8 L50.1,11.3 L55.1,9.6 L55.1,6.6 C50.1,8.2 55.1,6.6 50.1,8.2 L50.1,6.5 Z" id="路径"></path>
                    <polygon id="路径" points="68.3 6.7 61.5 14.1 61.5 0.9 58.2 0.9 58.2 22 61.5 22 61.5 18.5 63.9 16 68.3 22 72.2 22 66.1 13.6 72.4 6.7"></polygon>
                    <rect id="矩形" x="93" y="0.9" width="3.3" height="21.1"></rect>
                    <rect id="矩形" x="86.1" y="6.7" width="3.3" height="15.3"></rect>
                    <path d="M87.8,0.9 C86.7,0.9 85.7,1.8 85.7,3 C85.7,4.2 86.6,5.1 87.8,5.1 C88,5.1 88.1,5 88.3,5 L89.8,3.5 C89.8,3.3 89.9,3.2 89.9,3 C89.8,1.8 88.9,0.9 87.8,0.9 Z" id="路径"></path>
                    <path d="M113.7,14.3 C113.7,10.1 110.5,6.6 106.5,6.6 C102.5,6.6 99.3,10 99.3,14.3 C99.3,18.6 102.5,22 106.5,22 C109.3,22 111.6,20.3 112.8,17.9 L109.2,17.9 C108.5,18.6 107.5,19 106.5,19 C104.5,19 102.8,17.5 102.3,15.5 L113.5,15.5 C113.7,15.1 113.7,14.7 113.7,14.3 Z M102.5,13 C103,11.1 104.7,9.8 106.6,9.8 C108.5,9.8 110.1,11.2 110.7,13 L102.5,13 Z" id="形状"></path>
                    <path d="M78.9,16.4 L78.9,9.6 L82.6,9.6 L82.6,6.7 L78.9,6.7 L78.9,5.3 L78.9,2.5 L75.6,2.5 L75.6,5.3 L75.6,17.5 C75.6,20 77.6,22 80.1,22 L82.8,22 L82.8,18.7 L80.8,18.7 C79.9,18.7 78.9,17.5 78.9,16.4 Z" id="路径"></path>
                    <polygon id="路径" points="25 0.7 20.6 16.1 16.2 0.7 16.2 0.7 16.2 0.7 12.9 0.7 12.8 0.7 12.9 0.7 8.5 16 4.1 0.7 0.8 0.7 6.8 21.8 6.8 21.8 6.8 21.8 10.1 21.8 10.2 21.8 10.1 21.8 14.5 6.5 18.9 21.8 18.9 21.8 22.2 21.8 22.3 21.8 28.3 0.7"></polygon>
                    <path d="M36,6.5 C31.8,6.5 28.3,9.9 28.3,14.2 C28.3,18.5 31.7,21.9 36,21.9 C36.9,21.9 37.8,21.7 38.6,21.4 L43.2,16.8 C43.5,16 43.7,15.1 43.7,14.2 C43.6,10 40.2,6.5 36,6.5 Z M40.3,15.1 L36.8,18.6 C36.5,18.7 36.2,18.7 35.9,18.7 C33.4,18.7 31.4,16.7 31.4,14.2 C31.4,11.7 33.4,9.7 35.9,9.7 C38.4,9.7 40.4,11.7 40.4,14.2 C40.4,14.5 40.4,14.8 40.3,15.1 Z" id="形状"></path>
                </g>
                <g id="编组" fill="#348FE4">
                    <rect id="矩形" x="0" y="0" width="12.9" height="12.9"></rect>
                    <rect id="矩形" x="0" y="15.7" width="12.9" height="12.9"></rect>
                    <rect id="矩形" x="15.7" y="15.7" width="12.9" height="12.9"></rect>
                    <polygon id="路径" points="15.7 0 15.7 12.9 31.4 12.9 31.4 28.6 44.2 28.6 44.2 0"></polygon>
                </g>
            </g>
        </g>
    </g>
</svg>